<?xml version="1.0" encoding="utf-8"?>
<!-- Generator: Adobe Illustrator 22.0.0, SVG Export Plug-In . SVG Version: 6.00 Build 0)  -->
<svg version="1.1" id="Слой_1" xmlns="http://www.w3.org/2000/svg" xmlns:xlink="http://www.w3.org/1999/xlink" x="0px" y="0px"
	 viewBox="0 0 2000 2000" style="enable-background:new 0 0 2000 2000;" xml:space="preserve">
<g>
	<path d="M1644.5,731c-35.2-83.2-85.5-157.9-149.6-222c-64.1-64.1-138.8-114.4-222-149.6c-86.1-36.4-177.6-54.8-272-54.8
		c-94.4,0-185.9,18.5-272,54.8c-83.2,35.2-157.9,85.5-222,149.6c-64.1,64.1-114.4,138.8-149.6,222c-36.4,86.1-54.8,177.6-54.8,272
		c0,94.4,18.5,185.9,54.8,272c35.2,83.2,85.5,157.9,149.6,222c64.1,64.1,138.8,114.4,222,149.6c86.1,36.4,177.6,54.8,272,54.8
		c94.4,0,185.9-18.5,272-54.8c83.2-35.2,157.9-85.5,222-149.6s114.4-138.8,149.6-222c36.4-86.1,54.8-177.6,54.8-272
		C1699.3,908.6,1680.9,817.1,1644.5,731z M1631,1003c0,347.4-282.6,630.1-630.1,630.1c-347.4,0-630.1-282.6-630.1-630.1
		c0-347.4,282.6-630.1,630.1-630.1C1348.3,372.9,1631,655.6,1631,1003z"/>
	<path d="M1267.7,960.4h-229.8V597.2c0-19.4-17.6-37-37-37c-19.4,0-37,17.6-37,37v400.2c0,19.4,17.6,37,37,37h266.8
		c22.4,0,30.9-16.3,36.2-32.3l0.8-2.3v-2.4C1304.7,978.1,1287.1,960.4,1267.7,960.4z"/>
</g>
<path d="M1770.7,26.7H231.1c-119.5,0-220.4,100.9-220.4,220.4v1511.8c0,119.5,100.9,220.4,220.4,220.4h1539.7
	c60.4,0,116.1-22.5,157-63.3c40.8-40.8,63.4-96.6,63.4-157V247.1C1991.2,127.6,1890.2,26.7,1770.7,26.7z M1917.2,247.1V1759
	c0,80.8-65.7,146.5-146.5,146.5H231.1c-80.8,0-146.5-65.7-146.5-146.5V247.1c0-80.8,65.7-146.5,146.5-146.5h1539.7
	C1851.5,100.6,1917.2,166.3,1917.2,247.1z"/>
</svg>
