<?xml version="1.0" encoding="utf-8"?>
<!-- Generator: Adobe Illustrator 22.0.0, SVG Export Plug-In . SVG Version: 6.00 Build 0)  -->
<svg version="1.1" id="Слой_1" xmlns="http://www.w3.org/2000/svg" xmlns:xlink="http://www.w3.org/1999/xlink" x="0px" y="0px"
	 viewBox="0 0 2000 2000" style="enable-background:new 0 0 2000 2000;" xml:space="preserve">
<g>
	<path d="M1000.9,1700c-385.3,0-697-311.7-697-697s311.7-697,697-697s697,311.7,697,697S1386.2,1700,1000.9,1700L1000.9,1700z
		 M1000.9,345.7c-362.7,0-657.3,294.7-657.3,657.3c0,362.7,294.7,657.3,657.3,657.3c362.7,0,657.3-294.7,657.3-657.3
		S1363.5,345.7,1000.9,345.7L1000.9,345.7z"/>
	<path d="M1272.9,1020h-272c-11.3,0-22.7-11.3-22.7-22.7v-408c0-11.3,11.3-22.7,22.7-22.7c11.3,0,22.7,11.3,22.7,22.7v385.3h249.3
		c11.3,0,22.7,11.3,22.7,22.7C1289.9,1014.4,1284.2,1020,1272.9,1020L1272.9,1020z"/>
</g>
<g>
	<path d="M1785.7,1983.3H216.1c-113.3,0-209.7-96.3-209.7-209.7V232.4c0-113.3,96.3-209.7,209.7-209.7h1569.6
		c113.3,0,209.7,96.3,209.7,209.7v1541.3C1995.3,1892.7,1904.7,1983.3,1785.7,1983.3z M216.1,68.1c-90.7,0-164.3,73.7-164.3,164.3
		v1541.3c0,90.7,73.7,164.3,164.3,164.3h1569.6c90.7,0,164.3-73.7,164.3-164.3V232.4c0-90.7-73.7-164.3-164.3-164.3H216.1z"/>
</g>
</svg>
