<?xml version="1.0" encoding="utf-8"?>
<!-- Generator: Adobe Illustrator 22.0.0, SVG Export Plug-In . SVG Version: 6.00 Build 0)  -->
<svg version="1.1" id="Слой_1" xmlns="http://www.w3.org/2000/svg" xmlns:xlink="http://www.w3.org/1999/xlink" x="0px" y="0px"
	 viewBox="0 0 2000 2000" style="enable-background:new 0 0 2000 2000;" xml:space="preserve">
<g>
	<path d="M1992.3,209.2C1983.7,89.6,1881.2,4.2,1761.6,4.2c-512.7,0-1016.9,0-1529.6,0c-17.1,0-25.6,0-42.7,0
		C78.2,29.8,1.3,115.2,1.3,234.9c0,256.4,0,504.2,0,760.5s0,504.2,0,760.5c0,17.1,0,25.6,0,42.7c17.1,111.1,111.1,196.5,222.2,196.5
		c512.7,0,1025.4,0,1538.1,0c8.5,0,17.1,0,25.6,0c111.1-17.1,196.5-111.1,196.5-222.2c0-512.7,0-1025.4,0-1538.1L1992.3,209.2
		L1992.3,209.2z M1001,619.4c213.6,0,384.5,170.9,384.5,384.5s-170.9,384.5-384.5,384.5s-384.5-170.9-384.5-384.5
		C625.1,790.3,796,619.4,1001,619.4L1001,619.4z M1770.1,858.7c0,273.4,0,546.9,0,820.3c0,51.3-34.2,85.5-85.5,85.5
		c-427.3,0-846,0-1273.2,0c-34.2,0-59.8,0-94,0c-51.3,0-76.9-34.2-76.9-76.9c0-273.4,0-555.4,0-828.9v-8.5c59.8,0,111.1,0,170.9,0
		c-34.2,153.8-17.1,307.6,51.3,444.3c59.8,102.5,136.7,179.4,239.3,239.3c205.1,111.1,452.9,102.5,640.9-25.6
		c102.5-76.9,179.4-170.9,230.7-290.5c42.7-119.6,51.3-239.3,17.1-367.4c59.8,0,111.1,0,170.9,0
		C1770.1,850.1,1770.1,850.1,1770.1,858.7L1770.1,858.7z M1770.1,533.9c0,42.7-34.2,76.9-76.9,76.9l0,0c-34.2,0-76.9,0-111.1,0
		c-34.2,0-76.9,0-111.1,0c-42.7,0-76.9-34.2-76.9-76.9c0-76.9,0-153.8,0-230.7c0-42.7,34.2-76.9,76.9-76.9c76.9,0,153.8,0,222.2,0
		c42.7,0,76.9,34.2,76.9,76.9C1770.1,388.7,1770.1,465.6,1770.1,533.9L1770.1,533.9z"/>
</g>
</svg>
