<?xml version="1.0" encoding="utf-8"?>
<!-- Generator: Adobe Illustrator 22.0.0, SVG Export Plug-In . SVG Version: 6.00 Build 0)  -->
<svg version="1.1" id="Слой_1" xmlns="http://www.w3.org/2000/svg" xmlns:xlink="http://www.w3.org/1999/xlink" x="0px" y="0px"
	 viewBox="0 0 2000 2000" style="enable-background:new 0 0 2000 2000;" xml:space="preserve">
<style type="text/css">
	.st0{clip-path:url(#SVGID_2_);}
</style>
<g>
	<g>
		<g>
			<defs>
				<rect id="SVGID_1_" x="2.8" y="3.8" width="1993.5" height="1993.5"/>
			</defs>
			<clipPath id="SVGID_2_">
				<use xlink:href="#SVGID_1_"  style="overflow:visible;"/>
			</clipPath>
			<path class="st0" d="M1939.3,1538L1537,1269.7c-51.3-33.7-119.6-22.8-157.4,25.4l-117,150.7c-15,19.7-42.5,25.4-64.2,13.5
				l-22.3-12.4c-74-40.4-165.7-90.6-351.1-276C639.6,985.5,589.4,893.3,549,819.8l-12.4-22.3c-12.4-21.7-6.7-49.2,13.5-64.7
				l150.7-117c48.2-37.8,59.5-106.1,25.4-157.4L457.9,56.1C423.2,4.3,353.8-11.8,300.5,20.9l-168.3,101
				C79.4,152.9,40.6,203.1,24,262.1C-36.6,483.2,9,864.3,570.3,1425.6c446.8,446.3,779.3,566.5,1007.6,566.5
				c52.8,0,105.1-6.7,155.9-20.2c59-16.6,109.3-55.4,140.3-108.2l101-168.3C2006.6,1642,1991.1,1572.6,1939.3,1538L1939.3,1538z
				 M1917.5,1661.7l-101,168.3c-22.3,38.3-58.5,66.3-101,78.2c-204,55.9-560.2,9.8-1099.2-529.2S31.2,483.8,87.2,279.7
				c11.9-42.5,40.4-78.7,78.2-101l168.3-101c23.3-14,53.3-7.2,68.3,15.5l146,219l122.2,183.3c14.5,22.3,9.8,51.8-10.9,68.3
				L508.6,681c-46.1,35.2-59,98.4-30.5,149.1l11.9,21.7c42.5,77.7,94.8,174.5,287.4,366.6c192.1,192.1,288.9,244.9,366.6,287.4
				l21.7,11.9c50.2,28.5,113.9,15,149.1-30.5l117-150.7c16.6-20.7,46.1-25.9,68.3-10.9l402.3,268.2
				C1924.8,1607.9,1931.5,1638.4,1917.5,1661.7L1917.5,1661.7z"/>
		</g>
	</g>
</g>
</svg>
