<?xml version="1.0" encoding="utf-8"?>
<!-- Generator: Adobe Illustrator 22.0.0, SVG Export Plug-In . SVG Version: 6.00 Build 0)  -->
<svg version="1.1" id="Слой_1" xmlns="http://www.w3.org/2000/svg" xmlns:xlink="http://www.w3.org/1999/xlink" x="0px" y="0px"
	 viewBox="0 0 2000 2000" style="enable-background:new 0 0 2000 2000;" xml:space="preserve">
<style type="text/css">
	.st0{clip-path:url(#SVGID_2_);}
</style>
<g>
	<g>
		<g>
			<defs>
				<rect id="SVGID_1_" x="241.6" y="3.2" width="1514.7" height="1993.7"/>
			</defs>
			<clipPath id="SVGID_2_">
				<use xlink:href="#SVGID_1_"  style="overflow:visible;"/>
			</clipPath>
			<path class="st0" d="M998.6,3.2C581.9,3.9,244.4,341.3,243.7,758c0,405.4,696.2,1191.4,725.9,1223.9c14.1,16.3,38.9,17,55.2,2.8
				c1.4-0.7,2.1-2.1,2.8-2.8c29.7-33.3,725.2-818.5,725.2-1223.9C1752.8,341.3,1415.3,3.9,998.6,3.2L998.6,3.2z M998.6,1897.1
				c-133-155.6-677-807.2-677-1139.7c0-373.5,302.8-677,677-677c373.5,0,677,302.8,677,677
				C1675.6,1089.8,1131.6,1742.8,998.6,1897.1L998.6,1897.1z"/>
		</g>
	</g>
	<path d="M1012,381.7c-225.7,0-408.9,183.2-408.2,409.6c0,225.7,183.2,408.9,409.6,408.9c225.7,0,408.9-183.2,408.9-408.9
		C1421,564.9,1238.4,381.7,1012,381.7L1012,381.7z M1012,1122.4c-183.2,0-331.1-148.6-331.1-331.1c0-183.2,148.6-331.1,331.1-331.1
		c183.2,0,331.1,148.6,331.1,331.1S1195.3,1122.4,1012,1122.4L1012,1122.4z"/>
</g>
</svg>
