<?xml version="1.0" encoding="utf-8"?>
<!-- Generator: Adobe Illustrator 22.0.0, SVG Export Plug-In . SVG Version: 6.00 Build 0)  -->
<svg version="1.1" id="Слой_1" xmlns="http://www.w3.org/2000/svg" xmlns:xlink="http://www.w3.org/1999/xlink" x="0px" y="0px"
	 viewBox="0 0 2000 2000" style="enable-background:new 0 0 2000 2000;" xml:space="preserve">
<style type="text/css">
	.st0{clip-path:url(#SVGID_2_);}
</style>
<g>
	<g>
		<g>
			<defs>
				<rect id="SVGID_1_" x="6.6" y="436.3" width="1985.8" height="1127.3"/>
			</defs>
			<clipPath id="SVGID_2_">
				<use xlink:href="#SVGID_1_"  style="overflow:visible;"/>
			</clipPath>
			<path class="st0" d="M1710.6,1153.5c65.9,64.2,135.3,124,194.2,195.1c26,31.2,50.3,63.3,69.4,99.7c26.9,52,2.6,108.4-44.2,111.9
				h-288.8c-74.6,6.1-133.5-23.4-183.8-74.6c-39.9-40.8-77.2-84.1-115.3-125.7c-15.6-17.3-32.1-33-52-46
				c-39-25.1-73.7-17.3-96.3,23.4c-22.5,41.6-27.7,87.6-30.4,134.4c-3.5,67.6-23.4,85.9-91.9,88.5c-145.7,6.9-284.4-14.7-412.8-88.5
				c-113.6-65-201.2-156.1-277.5-260.2C232,1009.5,118.4,788.4,16.1,560.3c-23.4-51.2-6.1-78.9,50.3-79.8
				c93.7-1.7,188.2-1.7,282.7,0c38.2,0.9,63.3,22.5,78,59c51.2,124.9,113.6,244.5,191.6,354.7c20.8,29.5,42.5,59,72,79.8
				c33.8,22.5,59,15.6,74.6-21.7c10.4-23.4,14.7-49.4,16.5-74.6c7.8-86.7,8.7-174.3-4.3-261c-7.8-53.8-38.2-89.3-92.8-99.7
				c-27.7-5.2-23.4-15.6-10.4-31.2c23.4-26.9,45.1-44.2,88.5-44.2h326.1c51.2,10.4,62.4,33,69.4,85v361.6
				c-0.9,19.9,10.4,78.9,46,92.8c28.6,9.5,47.7-13.9,65-32.1c78-82.4,133.5-180.4,183.8-281.8c21.7-44.2,40.8-91.1,59.8-137
				c13.9-34.7,34.7-51.2,73.7-50.3h313.9c9.5,0,19.1,0,27.7,1.7c52.9,8.7,67.6,32.1,51.2,83.2c-26,80.6-75.4,148.3-124.9,215.9
				c-52,72-108.4,142.2-160.4,215.1C1647.3,1062.4,1650.8,1095.4,1710.6,1153.5L1710.6,1153.5z"/>
		</g>
	</g>
</g>
</svg>
