<?xml version="1.0" standalone="no"?>
<!DOCTYPE svg PUBLIC "-//W3C//DTD SVG 20010904//EN"
 "http://www.w3.org/TR/2001/REC-SVG-20010904/DTD/svg10.dtd">
<svg version="1.0" xmlns="http://www.w3.org/2000/svg"
 width="512.000000pt" height="512.000000pt" viewBox="0 0 512.000000 512.000000"
 preserveAspectRatio="xMidYMid meet">
<metadata>
Created by potrace 1.11, written by Peter Selinger 2001-2013
</metadata>
<g transform="translate(0.000000,512.000000) scale(0.100000,-0.100000)"
fill="#000000" stroke="none">
<path d="M2382 5100 c-39 -24 -62 -73 -62 -130 l0 -40 -40 0 c-111 0 -177 -86
-134 -176 21 -44 75 -72 134 -69 34 2 40 -1 41 -19 3 -116 39 -167 119 -168
72 -1 121 50 126 130 1 26 3 49 3 52 1 3 24 6 52 7 82 3 130 47 131 121 1 70
-43 112 -130 121 l-56 6 -1 41 c-3 85 -39 130 -113 140 -26 3 -46 -1 -70 -16z"/>
<path d="M4385 4905 c-192 -51 -373 -225 -435 -418 -29 -91 -15 -197 34 -261
53 -70 175 -96 289 -61 181 55 359 234 413 415 17 59 20 144 6 181 -6 15 -8
30 -5 33 4 3 1 6 -5 6 -7 0 -12 6 -12 14 0 18 -56 65 -99 83 -48 20 -126 23
-186 8z"/>
<path d="M3515 4760 c-58 -14 -86 -30 -130 -75 -202 -209 -159 -689 72 -805
122 -61 253 1 332 157 65 130 75 325 23 488 -49 157 -182 262 -297 235z"/>
<path d="M2920 4204 c-84 -48 -153 -151 -181 -271 -30 -127 -13 -315 37 -417
82 -168 224 -235 346 -163 261 152 253 722 -12 857 -57 29 -133 27 -190 -6z"/>
<path d="M4040 4049 c-271 -27 -446 -205 -371 -375 61 -137 261 -225 478 -211
106 7 135 13 190 37 23 10 44 16 47 12 3 -3 6 -1 6 5 0 5 11 15 25 21 58 27
130 114 142 172 25 119 -65 240 -224 303 -78 31 -198 45 -293 36z"/>
<path d="M2403 3681 c-125 -57 -211 -232 -211 -429 -1 -159 46 -296 128 -380
81 -82 161 -101 252 -59 183 83 266 412 169 666 -66 175 -209 260 -338 202z"/>
<path d="M3568 3525 c-2 -2 -28 -6 -58 -9 -84 -7 -119 -16 -189 -48 -82 -36
-123 -67 -161 -123 -66 -96 -48 -216 44 -293 57 -47 90 -67 151 -89 140 -50
347 -44 474 14 45 21 125 74 130 86 2 5 11 17 20 26 69 70 62 203 -17 287 -72
77 -177 123 -322 140 -25 3 -50 7 -57 9 -6 2 -13 2 -15 0z"/>
<path d="M1078 3465 c-37 -21 -59 -67 -61 -126 l-1 -49 -50 0 c-60 -1 -90 -15
-117 -56 -56 -85 7 -184 117 -184 l51 0 2 -50 c1 -65 21 -103 66 -124 91 -44
170 13 176 127 l3 47 44 0 c60 0 107 24 126 65 44 93 -13 175 -121 175 l-53 0
0 44 c0 56 -12 88 -45 118 -31 29 -96 35 -137 13z"/>
<path d="M1873 3151 c-89 -42 -174 -166 -201 -296 -11 -48 -10 -260 1 -300 28
-108 100 -218 170 -262 52 -33 137 -41 189 -19 45 19 116 87 144 136 48 86 64
150 71 286 4 83 1 115 -16 178 -37 136 -100 229 -182 271 -50 26 -127 29 -176
6z"/>
<path d="M2949 2985 c-3 -2 -20 -7 -39 -10 -139 -23 -265 -108 -307 -205 -21
-51 -18 -130 8 -177 64 -114 232 -194 414 -197 170 -3 303 42 393 132 26 25
51 45 55 44 5 -2 6 1 3 6 -3 5 1 26 9 48 51 149 -84 302 -310 350 -36 7 -220
15 -226 9z"/>
<path d="M2415 2449 c-109 -18 -175 -43 -244 -94 -138 -102 -156 -242 -44
-353 92 -93 234 -141 394 -136 111 3 177 17 255 54 223 107 251 317 58 445
-111 74 -277 107 -419 84z"/>
<path d="M544 2330 c-45 -18 -96 -144 -109 -269 -4 -31 -9 -67 -11 -81 -6 -32
-6 -346 0 -380 2 -14 7 -54 11 -90 9 -99 35 -259 50 -315 8 -27 17 -64 20 -81
7 -42 71 -243 105 -329 43 -108 79 -182 137 -278 39 -64 52 -95 49 -115 -40
-252 -29 -347 45 -376 50 -20 74 -20 109 0 46 28 61 65 70 182 5 59 11 121 14
137 47 298 200 652 435 1010 93 142 199 288 212 293 5 2 9 8 9 13 0 9 141 190
175 225 38 40 111 129 117 143 22 54 -3 131 -52 156 -60 31 -114 15 -174 -52
-22 -26 -48 -54 -56 -63 -87 -89 -382 -485 -466 -623 -16 -27 -37 -61 -46 -75
-59 -94 -203 -369 -231 -442 -3 -8 -6 12 -7 45 -9 311 -25 473 -70 710 -39
198 -132 465 -199 570 -27 42 -69 85 -82 85 -4 0 -13 2 -21 4 -7 3 -23 1 -34
-4z"/>
<path d="M3257 1702 c-43 -29 -57 -56 -60 -111 -2 -28 -5 -53 -8 -55 -2 -3
-29 -6 -58 -7 -46 -2 -59 -8 -87 -35 -36 -36 -43 -62 -33 -112 13 -62 57 -92
136 -94 24 0 44 -4 44 -9 2 -11 6 -61 8 -89 0 -10 17 -35 36 -55 29 -28 43
-35 75 -35 92 0 126 45 129 173 1 14 10 17 47 17 67 0 109 24 129 72 22 56 11
102 -31 136 -37 30 -35 29 -98 31 l-43 1 -6 61 c-4 51 -11 67 -35 92 -39 38
-104 47 -145 19z"/>
<path d="M3910 321 c0 -6 4 -13 10 -16 6 -3 7 1 4 9 -7 18 -14 21 -14 7z"/>
</g>
</svg>
